<svg width="3865" height="3356" viewBox="0 0 3865 3356" fill="none" xmlns="http://www.w3.org/2000/svg">
<path d="M2.44531 2899.84C242.877 2615.32 482.498 2334.12 721.314 2052.23C980.121 1746.74 1239.82 1441.97 1494.95 1133.44C1537.44 1082.05 1584.56 1059.68 1645.35 1048.99C1787.86 1023.92 1930.2 997.778 2072.13 969.655C2109.72 962.207 2136.47 969.817 2163.54 997.15C2264.32 1098.91 2366.32 1199.51 2469.63 1298.69C2495.74 1323.75 2499.9 1345.96 2489.21 1380.23C2437.9 1544.72 2388.7 1709.9 2340.92 1875.47C2331.3 1908.81 2313.63 1926.13 2282.27 1939.57C1918.82 2095.23 1556.11 2252.63 1192.99 2409.04C837.336 2562.23 481.427 2714.83 125.624 2867.67C92.7346 2881.8 59.9369 2896.16 26.7848 2909.64C17.6083 2913.38 4.82604 2923.4 2.44531 2899.84Z" fill="white"/>
<path d="M3226.04 1246.03C3262.43 1318.68 3263.29 1386.44 3236.09 1460.69C3200.41 1558.11 3175.75 1659.55 3146.08 1759.18C3142.49 1771.22 3142.44 1785.57 3120.57 1796.15C3072.18 1749.46 3020.88 1701.06 2970.8 1651.45C2708.43 1391.59 2446.26 1131.54 2184.48 871.099C2166.35 853.064 2148.84 848.281 2123.5 853.481C2038.05 871.018 1952.05 885.84 1866.43 901.667C1853.37 871.281 1872.32 853.065 1881.15 834.054C1961.25 661.464 2042.8 489.543 2123.61 317.28C2134.77 293.476 2146.76 270.912 2168.38 254.499C2269.46 177.788 2370.48 101.004 2471.07 23.6603C2494.28 5.8143 2519.3 -0.38355 2548.27 0.0182026C2665.41 1.64341 2782.58 2.28645 2899.74 2.33319C2926.92 2.34407 2950.63 8.70793 2972.66 24.8296C3034.36 69.9652 3095.76 115.612 3159.04 158.435C3189.51 179.05 3190.56 197.256 3170.01 225.753C3111.98 306.234 3056.83 388.798 2998.7 469.203C2978.39 497.284 2980.64 516.48 3006.06 539.808C3058.77 588.199 3107.99 640.403 3160.79 688.695C3185.81 711.579 3188.51 732.881 3164.29 753.836C3082.97 824.194 3095.74 902.481 3134.04 990.071C3169.77 1071.78 3194.87 1158.14 3226.04 1246.03ZM2662.43 279.949C2582.67 338.614 2574.77 413.745 2644.81 480.697C2664.94 499.935 2667.09 516.479 2661.01 540.541C2644.83 604.482 2630.34 668.849 2612.85 742.921C2680.7 742.921 2740.1 743.641 2799.46 742.559C2822.51 742.139 2823.48 726.342 2818.79 707.763C2804.89 652.685 2792.3 597.274 2778.06 542.285C2771.38 516.46 2775.3 497.745 2796.16 477.568C2849.3 426.199 2855.6 378.676 2822.39 325.114C2789.28 271.719 2740.94 256.48 2662.43 279.949Z" fill="white"/>
<path d="M2163.6 3216.72C2232.88 3216.72 2297.42 3216.72 2371.16 3216.72C2324.01 3148.85 2273.3 3098.9 2225.75 3046.5C2178.72 2994.68 2131.12 2943.16 2080.64 2894.77C2044.53 2860.16 2037.32 2816.29 2028.33 2771.68C2025.05 2755.4 2034.39 2747.25 2046.9 2741.5C2187.34 2676.99 2327.86 2612.65 2468.45 2548.47C2470.93 2547.34 2474.6 2548.82 2480.92 2549.34C2483.62 2570.63 2468.29 2584.3 2458.45 2599.49C2403.59 2684.2 2348.84 2769 2292.64 2852.82C2276.72 2876.56 2275.32 2893.43 2295.96 2916.34C2376.57 3005.81 2455.47 3096.82 2534 3188.12C2551.57 3208.55 2571.43 3217.09 2597.73 3216.76C2667.74 3215.87 2737.81 3217.66 2807.75 3215.35C2842.03 3214.22 2866.36 3225.39 2887.39 3251.96C2913.26 3284.65 2942.1 3314.98 2976.33 3353.92C2508.73 3353.92 2051.36 3353.92 1590.66 3353.92C1643.22 3225.23 1743.81 3196.66 1861.8 3217.04C1876.35 3186.96 1860.32 3175.06 1848.67 3162.4C1781.45 3089.34 1717.72 3012.47 1645.22 2945.04C1583.33 2887.48 1547.17 2821.01 1536.83 2739.45C1529.69 2683.21 1506.71 2650.65 1445.23 2640.44C1368.55 2627.7 1293.83 2603.1 1218.33 2583.37C1190.66 2576.13 1163.19 2568.15 1135.62 2560.5C1134.92 2555.5 1134.22 2550.49 1133.52 2545.49C1508.1 2383.99 1882.68 2222.5 2256.1 2061.5C2270.9 2080.67 2259.55 2090.66 2253.32 2101.28C2105.89 2352.52 1958.68 2603.89 1810.43 2854.64C1795.65 2879.63 1795.79 2897.36 1815.65 2919.35C1896.36 3008.71 1976.61 3098.54 2054.97 3189.97C2084.95 3224.95 2122.66 3214.25 2163.6 3216.72Z" fill="white"/>
<path d="M2932.69 1753.42C2979.04 1799.33 3022.23 1843.57 3067.24 1885.89C3089.51 1906.83 3091.17 1923.15 3070.55 1947.24C2969.08 2065.8 2869.38 2185.85 2768.21 2304.67C2756.96 2317.88 2741.81 2329.53 2726.12 2336.94C2499.77 2443.77 2273.03 2549.77 2046.31 2655.8C2040.73 2658.41 2034.25 2659.1 2028.89 2660.49C2014.46 2645.25 2026.95 2634.95 2032.95 2624.86C2149.2 2429.22 2264.86 2233.22 2382.72 2038.55C2429.12 1961.9 2447.25 1875.99 2472.77 1792.34C2504.52 1688.28 2534.99 1583.83 2566.45 1479.69C2571.53 1462.86 2578.91 1446.73 2589.67 1418.7C2712.73 1526.88 2818.07 1642.59 2932.69 1753.42Z" fill="white"/>
<path d="M1155.74 2649.42C1205.1 2665.22 1253.72 2670.42 1306.76 2695.18C1238.41 2754.66 1176.53 2808.81 1114.32 2862.57C981.534 2977.32 847.966 3091.17 716.192 3207.07C688.347 3231.56 660.88 3247.04 623.127 3253.17C429.218 3284.69 235.883 3319.73 42.2848 3353.18C30.2661 3355.26 17.0712 3361.3 0 3344.96C35.7213 3302.52 70.7706 3258.88 107.932 3217.13C201.949 3111.48 298.142 3007.75 390.925 2901.05C430.622 2855.4 477.758 2824.97 532.868 2802.03C666.404 2746.44 799.229 2689.09 931.462 2630.47C972.164 2612.42 1009.66 2605.55 1052.77 2623.4C1083.91 2636.29 1118.69 2640.35 1155.74 2649.42Z" fill="white"/>
<path d="M3700.57 479.569C3494.44 427.112 3290.65 469.509 3089.99 477.375C3084.13 452.436 3094.26 442.866 3101.54 432.515C3141.8 375.309 3183.82 319.274 3222.17 260.826C3243.71 227.994 3268.25 216.829 3307.43 223.603C3439.85 246.498 3573.78 257.472 3695.4 327.011C3771.1 370.294 3812.43 439.993 3864.15 508.164C3810.98 498.981 3757.82 489.798 3700.57 479.569Z" fill="white"/>
<path d="M3676.43 505.38C3689.12 508.398 3698.12 510.575 3707.12 512.752C3708.56 516.573 3710 520.393 3711.43 524.214C3656.23 554.638 3603.93 592.068 3541.96 608.241C3457.31 630.336 3370.8 645.233 3285.66 665.572C3251.95 673.623 3227.84 667.374 3203.6 641.516C3165.33 600.69 3122.99 563.688 3084.66 516.492C3282.1 508.088 3476.21 461.477 3676.43 505.38Z" fill="white"/>
</svg>
